/* XPM */
static char *_1bb208d40324e8ee8b8825f0f2b6f46[] = {
/* columns rows colors chars-per-pixel */
"32 32 99 2 ",
"   c #DE362D",
".  c #DC352E",
"X  c #DD352E",
"o  c #DC362E",
"O  c #DD3A2D",
"+  c #DE382E",
"@  c #DC651E",
"#  c #DC671E",
"$  c #DB6A1C",
"%  c #DC691C",
"&  c #DC691D",
"*  c #DD691D",
"=  c #DC6A1D",
"-  c #DC691E",
";  c #DD691E",
":  c #DD6F1C",
">  c #DF781C",
",  c #DF7A1C",
"<  c #DC432A",
"1  c #DD4429",
"2  c #DF412C",
"3  c #DE422C",
"4  c #DE432C",
"5  c #DF4A2A",
"6  c #DC5524",
"7  c #DC5A22",
"8  c #E04D2A",
"9  c #E04E2A",
"0  c #E26526",
"q  c #E47423",
"w  c #E47622",
"e  c #E6871F",
"r  c #E28A1B",
"t  c #E28C1A",
"y  c #E68A1F",
"u  c #E58E1C",
"i  c #E49319",
"p  c #E49A19",
"a  c #E8991C",
"s  c #E89A1C",
"d  c #E8A317",
"f  c #E8AB17",
"g  c #E9A31A",
"h  c #E8A918",
"j  c #E9A919",
"k  c #E9AA18",
"l  c #EAAF18",
"z  c #EAB317",
"x  c #EAB417",
"c  c #EAB517",
"v  c #EBB716",
"b  c #EBB915",
"n  c #EBBA15",
"m  c #EBBB15",
"M  c #EBB816",
"N  c #EBB916",
"B  c #EABA16",
"V  c #EBBA16",
"C  c #EBBB16",
"Z  c #EABA17",
"A  c #EBBA17",
"S  c #ECBA16",
"D  c #EAB118",
"F  c #EBB318",
"G  c #E58520",
"H  c #545F80",
"J  c #555F80",
"K  c #556080",
"L  c #556180",
"P  c #566181",
"I  c #576283",
"U  c #576284",
"Y  c #586487",
"T  c #596489",
"R  c #5A658A",
"E  c #5B678C",
"W  c #606D97",
"Q  c #6572A1",
"!  c #6774A3",
"~  c #6775A5",
"^  c #6977AA",
"/  c #6B79AD",
"(  c #6B7AAE",
")  c #6C7BB0",
"_  c #6E7DB4",
"`  c #7080B8",
"'  c #7080BA",
"]  c #7182BC",
"[  c #7382BE",
"{  c #7282BF",
"}  c #7382BF",
"|  c #7383BF",
" . c #7483BF",
".. c #7384BF",
"X. c #7283C0",
"o. c #7383C0",
"O. c #7483C0",
"+. c #7384C0",
"@. c None",
/* pixels */
"@.@.@.@.@.@.S A A @.@.@.@.@.@.@.@.@.@.@.@.@.@.@.@.@.@.@.@.@.@.@.",
"@.@.@.@.@.A A A A n @.@.@.@.@.@.@.@.@.@.@.@.@.@.@.@.@.@.@.@.@.@.",
"@.@.@.@.@.A A A A A @.@.@.@.@.@.@.@.@.@.@.@.@.@...| | | |  .@.@.",
"@.@.@.@.@.n A n A A @.@.@.@.@.@.@.@.@.@.@.@.@.o.| | | | | | o.@.",
"@.@.@.@.@.v j s v @.@.@.@.@.@.@.@.@.@.@.@.@. .| | | | | | | | @.",
"@.@.@.@.@.X X X X X @.@.@.@.@.@.@.@.@.@.@.@...| | | | | | | | o.",
"@.@.@.@.X X X X X X O @.@.@.@.@.@.@.@.@.@.@...| | | | | | | | | ",
"@.@.@.@.X X X X X w F A A @.@.X X @.@.@.@.@.| | | | | | | | | | ",
"@.@.S 0 X X X X 5 A A A A a X X X X X @.@.@.....| | | | | | | | ",
"@.A A G X X X X w A n A A z X X X X X X @.@.@.X.| | / ) | | o.@.",
"@.n A z 4 X X X 8 A A n A y X X X X X X @.@.@.@.` R K K R | @.@.",
"@.A A A g 2 X X   u n A j 8 X X X X X X @.@.@.@.U K K K L @.@.@.",
"@.A A A A @.@.6 % % : , 7 X X X X X X O @.@.@.@.K K K K L H @.@.",
"@.@.@.@.@.@.@.& % % & & - 4 X X X X X q @.@.@.@.@.K K K H @.@.@.",
"@.@.@.@.@.@.@.& % % % & - @ < X X 4 G S A @.@.@.@.K K K K @.@.@.",
"@.@.@.@.@.@.@.& % % # & - - @.@.l A A S A @.@.@.@.@.@.@.@.@.@.@.",
"@.@.@.@.@.@.@.& & & & & & & @.@.A n A n A @.@.@.@.@.@.@.@.@.@.@.",
"@.@.@.@.@.@.@.@.& & & & & @.@.@.A A n A A @.@.@.@.@.@.@.@.@.@.@.",
"@.@.@.@.@.@.@.@.@.@.@.@.@.@.@.@.@.A A n @.@.@.@.@.@.@.@.@.@.@.@.",
"@.@.@.@.@.@.@.@.@.@.@.@.@.@.@.@.@.@.@.@.@.@.@.@.& & & & @.@.@.@.",
"@.@.@.@.@.@.@.@.@.@.@.@.@.@.@.@.@.@.@.@.@.@.@.@.- % - % & @.@.@.",
"@.@.@.@.@.@.+. . .| o.@.@.@.@.@.@.@.@.@.@.@.@.@.% - % - & @.@.@.",
"@.@.@.@.@.X.| | | | | | @.@.@.@.@.@.@.@.@.@.@.@.- % - - & @.@.@.",
"@.@.H K / | | | | | | | | @.@.@.@.@.@.@.@.@.@.@.d f v j @.@.@.@.",
"@.K K K K ` +.O.| | | | | @.@.@.@.@.@.@.@.@.@.A A A A n A @.@.@.",
"H K K K K Q  .O.| | | | | @.@.@.@.@.@.@.@.@.@.A n A n A n A @.@.",
"K K K K H ^ | | | | |  .| ! @.@.@.@.@.@.@.@.p A A n A n A A @.@.",
"@.K K K R | | | | | | ..| Y @.@.@.@.@.@.& & t S n A n A A A @.@.",
"@.@.@.@.| | | | | | | X.~ K H @.@.@.@.@.& & > S n A A A A A @.@.",
"@.@.@.@.@.| | | |  .| / I K K @.@.@.@.@.& & & i A n A A n @.@.@.",
"@.@.@.@.@.@.@.O.+._ W K K K K @.@.@.@.@.& & & & t n S A @.@.@.@.",
"@.@.@.@.@.@.@.@.@.@.@.K K K @.@.@.@.@.@.@.& & & @.@.@.@.@.@.@.@."
};
